<svg width="220" height="230" viewBox="0 0 220 230" fill="none" xmlns="http://www.w3.org/2000/svg">
<path d="M175.805 106.127C159.14 96.7038 142.847 80.6315 129.191 60.1509L129.006 60.0447C115.35 64.7648 99.0569 62.0373 82.3938 52.2287L81.7578 51.8535L82.6578 82.9718C85.8207 131.209 102.282 152.204 128.778 197.051L129.423 197.422C155.919 183.153 172.38 181.153 175.543 136.567L176.443 106.487L175.807 106.127H175.805Z" fill="url(#paint0_linear_1000_3852)"/>
<path d="M181.407 101.273C164.742 91.8503 148.449 75.778 134.793 55.2974L134.608 55.1912C120.953 59.913 104.66 57.1837 87.9954 47.3752L87.3577 47L81.9336 51.9582L82.3913 52.2272C99.0561 62.0358 115.349 64.765 129.003 60.0432L129.189 60.1494C142.845 80.6283 159.136 96.7023 175.802 106.125L176.44 106.485L175.54 136.567C173.476 165.669 165.743 176.625 153.256 184.695C168.858 175.486 178.823 164.425 181.143 131.713L182.043 101.633L181.405 101.273H181.407Z" fill="url(#paint1_linear_1000_3852)"/>
<path d="M182.045 101.633L181.407 101.274C164.742 91.8505 148.449 75.7782 134.793 55.2976L134.608 55.1914L129.004 60.0451L129.189 60.1514C142.845 80.6302 159.136 96.7042 175.803 106.127L176.441 106.487L182.045 101.635V101.633Z" fill="url(#paint2_linear_1000_3852)"/>
<path d="M176.44 106.487L175.54 136.569C173.476 165.67 165.743 176.627 153.256 184.696C168.858 175.487 178.823 164.427 181.143 131.715L182.043 101.635L176.438 106.487H176.44Z" fill="url(#paint3_linear_1000_3852)"/>
<path style="mix-blend-mode:color-dodge" d="M176.457 105.66C159.792 96.2372 143.499 80.1649 129.843 59.6861L129.658 59.5799C116.004 64.3 99.7108 61.5707 83.0459 51.7639L82.4082 51.3887L82.4528 52.9409C98.965 62.5421 115.093 65.1926 128.631 60.5119L128.815 60.6181C142.471 81.097 158.764 97.171 175.428 106.592L176.066 106.952L175.166 137.032C173.522 160.23 168.268 171.891 159.881 179.758C168.868 171.879 174.482 160.232 176.193 136.1L177.093 106.018L176.455 105.659L176.457 105.66Z" fill="url(#paint4_radial_1000_3852)"/>
<path style="mix-blend-mode:multiply" opacity="0.09" d="M82.5137 55.5117C82.5291 55.5186 83.1137 55.8612 83.1308 55.8681C93.9893 62.137 104.681 65.3425 114.568 65.3802C119.274 65.3974 123.793 64.6949 128.053 63.2592C128.058 63.2592 128.228 63.3517 128.233 63.3517C141.544 83.2343 157.373 98.8577 173.593 108.116C173.61 108.127 174.195 108.459 174.212 108.469C174.238 108.486 174.234 109.531 174.262 109.547L173.42 137.7C170.372 180.636 154.77 182.877 129.313 196.525C129.296 196.534 128.701 196.212 128.684 196.22C127.802 194.985 126.928 193.774 126.062 192.585C123.496 188.277 121.031 184.195 118.669 180.28C98.6231 147.047 86.2097 126.21 83.4343 85.794C83.4103 85.561 83.1565 77.2653 83.1394 77.0168L82.5171 55.5151L82.5137 55.5117Z" fill="url(#paint5_linear_1000_3852)"/>
<path style="mix-blend-mode:multiply" opacity="0.18" d="M83.1248 56.4858C83.1573 56.4996 83.7008 56.8148 83.7316 56.8285C94.3775 62.8507 104.857 65.9277 114.584 65.9603C119.19 65.9757 123.62 65.3024 127.801 63.9318C127.812 63.9301 127.969 64.0123 127.978 64.0106C141.19 83.6671 156.849 99.1294 172.926 108.393C172.958 108.414 173.503 108.724 173.538 108.744C173.591 108.777 173.616 109.736 173.67 109.769L172.835 137.666C169.845 179.753 154.805 182.273 129.908 195.556C129.872 195.573 129.319 195.292 129.283 195.311C128.36 194.265 127.445 193.24 126.531 192.238C123.989 187.973 121.548 183.93 119.204 180.044C99.2907 147.029 86.9357 126.316 84.0711 86.4837C84.0213 86.0177 83.7711 78.2874 83.7385 77.7888L83.123 56.4824L83.1248 56.4858Z" fill="url(#paint6_linear_1000_3852)"/>
<path style="mix-blend-mode:multiply" opacity="0.27" d="M83.7344 57.459C83.7824 57.4795 84.2847 57.7691 84.3327 57.7896C94.7677 63.5651 105.035 66.5137 114.601 66.5428C119.107 66.5565 123.446 65.914 127.552 64.6085C127.566 64.6051 127.713 64.6788 127.727 64.6753C140.842 84.1039 156.33 99.407 172.261 108.676C172.311 108.707 172.817 108.996 172.867 109.027C172.945 109.077 173.002 109.949 173.081 109.997L172.255 137.639C169.323 178.878 154.846 181.675 130.509 194.595C130.456 194.623 129.942 194.383 129.889 194.41C128.927 193.552 127.967 192.714 127.007 191.9C124.49 187.679 122.073 183.673 119.749 179.82C99.9655 147.022 87.6704 126.432 84.7167 87.1827C84.643 86.4837 84.3944 79.3187 84.3447 78.5718L83.7344 57.4607V57.459Z" fill="url(#paint7_linear_1000_3852)"/>
<path style="mix-blend-mode:multiply" opacity="0.36" d="M84.3477 58.4316C84.4111 58.4591 84.8722 58.7229 84.9374 58.7503C95.1598 64.2791 105.216 67.0991 114.621 67.1248C119.028 67.1368 123.278 66.5252 127.305 65.2831C127.324 65.2779 127.457 65.3413 127.478 65.3362C140.495 84.5369 155.812 99.6806 171.601 108.955C171.668 108.997 172.132 109.263 172.199 109.304C172.306 109.369 172.39 110.156 172.496 110.221L171.676 137.608C168.803 177.996 154.888 181.073 131.112 193.628C131.042 193.664 130.567 193.467 130.495 193.503C129.492 192.833 128.491 192.182 127.483 191.555C124.991 187.377 122.597 183.41 120.292 179.588C100.64 147.008 88.4037 126.541 85.3625 87.8761C85.2631 86.9441 85.018 80.3428 84.9528 79.3474L84.3477 58.4316Z" fill="url(#paint8_linear_1000_3852)"/>
<path style="mix-blend-mode:multiply" opacity="0.45" d="M84.957 59.406C85.0359 59.442 85.4576 59.6767 85.5365 59.711C95.5463 64.993 105.39 67.6846 114.635 67.7069C118.943 67.7171 123.104 67.1363 127.054 65.9593C127.078 65.9542 127.199 66.0056 127.223 66.0004C140.141 84.9733 155.288 99.9559 170.933 109.237C171.017 109.29 171.441 109.535 171.525 109.586C171.657 109.669 171.771 110.368 171.905 110.448L171.094 137.581C168.279 177.122 154.927 180.477 131.711 192.667C131.622 192.711 131.189 192.557 131.099 192.602C130.057 192.12 129.011 191.656 127.959 191.216C125.492 187.078 123.123 183.153 120.836 179.36C101.317 146.998 89.1382 126.656 86.0079 88.5712C85.8845 87.4062 85.6428 81.3703 85.5605 80.1264L84.9622 59.4043L84.957 59.406Z" fill="url(#paint9_linear_1000_3852)"/>
<path style="mix-blend-mode:multiply" opacity="0.55" d="M85.5684 60.3804C85.6644 60.4232 86.0432 60.6322 86.1392 60.6734C95.9365 65.7087 105.569 68.2718 114.652 68.2906C118.86 68.2992 122.93 67.7475 126.803 66.6356C126.832 66.6287 126.942 66.6698 126.971 66.663C139.79 85.4097 154.768 100.231 170.267 109.517C170.367 109.581 170.753 109.803 170.852 109.865C171.011 109.964 171.155 110.576 171.315 110.674L170.511 137.552C167.752 176.243 154.964 179.878 132.309 191.702C132.203 191.755 131.808 191.643 131.7 191.697C130.617 191.402 129.528 191.126 128.43 190.872C125.988 186.778 123.642 182.89 121.373 179.13C101.985 146.987 89.8661 126.767 86.6484 89.2663C86.5009 87.8683 86.2609 82.3978 86.1615 80.9038L85.5684 60.377V60.3804Z" fill="url(#paint10_linear_1000_3852)"/>
<path style="mix-blend-mode:multiply" opacity="0.64" d="M86.1777 61.3535C86.2892 61.4032 86.6286 61.5865 86.74 61.6345C96.3247 66.4231 105.745 68.8577 114.668 68.8731C118.777 68.88 122.758 68.3591 126.553 67.3123C126.586 67.3055 126.685 67.3346 126.72 67.3277C139.441 85.8466 154.248 100.509 169.603 109.8C169.72 109.874 170.064 110.076 170.181 110.148C170.366 110.263 170.541 110.789 170.726 110.902L169.93 137.524C167.23 175.367 155.004 179.28 132.91 190.741C132.785 190.804 132.43 190.734 132.305 190.795C131.182 190.689 130.05 190.6 128.904 190.535C126.486 186.483 124.165 182.635 121.914 178.905C102.657 146.98 90.5955 126.883 87.2903 89.9653C87.1172 88.3343 86.8806 83.4291 86.7657 81.685L86.1777 61.3535Z" fill="url(#paint11_linear_1000_3852)"/>
<path style="mix-blend-mode:multiply" opacity="0.73" d="M86.7883 62.3259C86.9152 62.3825 87.2135 62.5384 87.3404 62.5949C96.7142 67.1368 105.922 69.4429 114.684 69.4532C118.693 69.4583 122.585 68.9683 126.302 67.9849C126.339 67.9763 126.427 67.9969 126.464 67.9883C139.087 86.2793 153.724 100.782 168.935 110.077C169.068 110.161 169.372 110.341 169.506 110.423C169.718 110.555 169.92 110.993 170.133 111.124L169.344 137.491C166.703 174.484 155.039 178.677 133.505 189.772C133.363 189.844 133.047 189.816 132.905 189.888C131.741 189.971 130.567 190.068 129.374 190.19C126.982 186.181 124.683 182.37 122.453 178.671C103.326 146.964 91.3244 126.99 87.9301 90.6568C87.7329 88.7927 87.4981 84.4512 87.3661 82.4604L86.7832 62.3242L86.7883 62.3259Z" fill="url(#paint12_linear_1000_3852)"/>
<path style="mix-blend-mode:multiply" opacity="0.82" d="M87.3984 63.2983C87.5424 63.3617 87.7996 63.4919 87.9419 63.5536C97.1032 67.8488 106.1 70.0264 114.701 70.0333C118.611 70.0367 122.413 69.5775 126.053 68.6592C126.096 68.6489 126.171 68.6592 126.214 68.6489C138.739 86.7138 153.204 101.056 168.273 110.355C168.424 110.45 168.686 110.609 168.837 110.701C169.075 110.85 169.308 111.202 169.548 111.347L168.768 137.461C166.185 173.605 155.083 178.076 134.11 188.806C133.951 188.887 133.675 188.901 133.513 188.983C132.31 189.254 131.091 189.538 129.852 189.846C127.486 185.879 125.211 182.109 122.998 178.441C104.003 146.951 92.0597 127.101 88.5779 91.3499C88.3567 89.2528 88.1236 85.4768 87.9762 83.2358L87.4002 63.2949L87.3984 63.2983Z" fill="url(#paint13_linear_1000_3852)"/>
<path style="mix-blend-mode:multiply" opacity="0.91" d="M88.0098 64.2712C88.1692 64.3415 88.3852 64.446 88.5446 64.5145C97.4933 68.563 106.277 70.6121 114.719 70.6155C118.531 70.6155 122.241 70.1889 125.803 69.334C125.851 69.3237 125.915 69.322 125.963 69.3117C138.39 87.1487 152.686 101.331 167.609 110.636C167.775 110.741 168 110.878 168.166 110.98C168.432 111.145 168.694 111.412 168.96 111.573L168.186 137.432C165.661 172.727 155.122 177.478 134.711 187.843C134.533 187.932 134.298 187.989 134.12 188.08C132.875 188.539 131.615 189.01 130.329 189.505C127.988 185.58 125.737 181.849 123.544 178.213C104.681 146.94 92.7961 127.214 89.2252 92.0452C88.9784 89.7152 88.7503 86.5045 88.5858 84.0151L88.0149 64.2695L88.0098 64.2712Z" fill="url(#paint14_linear_1000_3852)"/>
<path style="mix-blend-mode:multiply" d="M130.8 189.166C128.484 185.284 126.257 181.592 124.082 177.987C103.961 144.631 91.8097 124.485 89.1868 84.7963L88.6211 65.2461C97.5389 69.2003 106.291 71.1997 114.735 71.1997C118.503 71.1997 122.177 70.7886 125.71 69.9765C138.434 88.151 153.072 102.505 168.369 111.801L167.603 137.404C165.134 171.85 155.159 176.88 135.309 186.881C133.834 187.622 132.336 188.378 130.8 189.166Z" fill="url(#paint15_linear_1000_3852)"/>
<path d="M170.76 110.933C154.095 101.51 137.802 85.4381 124.146 64.9576L123.961 64.8514C110.307 69.5732 94.0137 66.8439 77.3489 57.0354L76.7112 56.6602L71.2871 61.6184L71.7448 61.8874C88.4097 71.6959 104.702 74.4252 118.357 69.7034L118.542 69.8096C132.198 90.2884 148.489 106.362 165.156 115.785L165.794 116.145L164.894 146.227C162.83 175.329 155.096 186.285 142.609 194.355C158.211 185.146 168.177 174.085 170.496 141.373L171.396 111.293L170.758 110.933H170.76Z" fill="url(#paint16_linear_1000_3852)"/>
<path d="M171.398 111.293L170.761 110.934C154.096 101.511 137.803 85.4384 124.147 64.9578L123.962 64.8516L118.357 69.7053L118.543 69.8115C132.199 90.2904 148.49 106.364 165.156 115.787L165.794 116.147L171.398 111.293Z" fill="url(#paint17_linear_1000_3852)"/>
<path d="M165.794 116.147L164.894 146.229C162.83 175.331 155.096 186.287 142.609 194.357C158.211 185.148 168.177 174.087 170.496 141.375L171.396 111.295L165.792 116.149L165.794 116.147Z" fill="url(#paint18_linear_1000_3852)"/>
<path opacity="0.7" d="M115.16 186.297C94.5912 152.2 84.2454 135.046 81.751 97.623L81.1836 77.9785C94.3889 83.9459 107.049 85.8476 118.456 83.5792C129.86 99.009 142.52 111.716 155.725 120.989L155.158 139.977C152.664 174.524 142.318 179.739 121.746 190.103C120.669 190.647 119.574 191.197 118.458 191.766C117.337 189.907 116.24 188.083 115.163 186.297H115.16Z" fill="url(#paint19_linear_1000_3852)"/>
<path opacity="0.1" d="M118.453 83.5781C129.857 99.0079 142.517 111.715 155.722 120.988L155.155 139.976C152.661 174.523 142.315 179.738 121.743 190.101C120.666 190.646 119.571 191.196 118.455 191.765V83.5781H118.453Z" fill="url(#paint20_linear_1000_3852)"/>
<path style="mix-blend-mode:color-dodge" d="M165.811 115.32C149.146 105.897 132.853 89.8249 119.197 69.3443L119.012 69.2381C105.357 73.9582 89.0643 71.2289 72.3994 61.4221L71.7617 61.0469L71.8063 62.5991C88.3185 72.2003 104.447 74.8508 117.985 70.1701L118.168 70.2763C131.824 90.7552 148.117 106.829 164.782 116.252L165.42 116.612L164.52 146.692C162.874 169.89 157.621 181.551 149.235 189.418C158.221 181.539 163.836 169.892 165.547 145.76L166.447 115.68L165.809 115.32H165.811Z" fill="url(#paint21_radial_1000_3852)"/>
<path d="M115.16 186.297C94.5912 152.2 84.2454 135.046 81.751 97.623L81.1836 77.9785C94.3889 83.9459 107.049 85.8476 118.456 83.5792C129.86 99.009 142.52 111.716 155.725 120.989L155.158 139.977C152.664 174.524 142.318 179.739 121.746 190.103C120.669 190.647 119.574 191.197 118.458 191.766C117.337 189.907 116.24 188.083 115.163 186.297H115.16Z" fill="url(#paint22_linear_1000_3852)"/>
<path d="M165.158 115.787C148.493 106.364 132.201 90.2917 118.544 69.8111L118.359 69.7049C104.703 74.4267 88.4119 71.6974 71.7471 61.8889L71.1094 61.5137L72.0094 92.632C75.1723 140.869 91.6348 161.864 118.13 206.711L118.774 207.083C145.271 192.813 161.731 190.813 164.894 146.227L165.794 116.147L165.158 115.787ZM155.155 139.979C152.661 174.525 142.315 179.74 121.743 190.104C120.667 190.649 119.571 191.199 118.455 191.766C117.334 189.907 116.237 188.082 115.16 186.297C94.592 152.199 84.2461 135.046 81.7518 97.6228L81.1844 77.9783C94.3897 83.9457 107.05 85.8474 118.457 83.579C129.861 99.0088 142.521 111.716 155.726 120.989L155.159 139.977L155.155 139.979Z" fill="url(#paint23_linear_1000_3852)"/>
<path style="mix-blend-mode:color-dodge" d="M118.454 83.5792C107.047 85.8476 94.387 83.9459 81.1816 77.9785L81.2159 79.183C94.1041 84.8402 106.461 86.6374 117.612 84.4205C129.014 99.8503 141.675 112.558 154.882 121.83L154.314 140.818C152.92 160.12 149.074 170.261 142.364 177.265C149.591 170.234 153.702 160.069 155.154 139.979L155.722 120.99C142.516 111.718 129.856 99.0108 118.452 83.5809L118.454 83.5792Z" fill="url(#paint24_radial_1000_3852)"/>
<g opacity="0.2">
<path opacity="0.09" d="M41.9724 173.561L45.0856 171.813C45.3034 171.687 56.455 165.533 56.6435 165.642L59.3401 164.29C60.9002 163.391 63.1562 163.072 65.1379 163.072C66.8608 163.072 68.6763 163.593 69.9106 164.306L85.6891 173.232L90.8903 176.174L111.87 188.042C112.511 188.412 113.149 188.933 113.569 189.441C114.275 190.298 114.68 191.297 114.695 192.371C114.724 194.302 113.526 196.121 111.397 197.35L108.284 199.097C108.066 199.224 96.9144 205.378 96.7259 205.269L94.0292 206.62C92.4692 207.52 90.2132 207.839 88.2314 207.839C86.5086 207.839 84.6931 207.318 83.4588 206.605L67.6803 197.679L62.479 194.737L41.4993 182.869C40.8581 182.499 40.2204 181.977 39.7987 181.468C39.0924 180.611 38.6878 179.612 38.6724 178.538C38.6433 176.607 39.8416 174.788 41.9707 173.559L41.9724 173.561Z" fill="black"/>
<path opacity="0.18" d="M42.5078 173.984L45.5164 172.314C45.9535 172.062 56.3526 166.507 56.7297 166.725L59.3286 165.606C60.7326 164.796 63.1001 164.703 64.8847 164.703C66.4361 164.703 68.3442 165.332 69.4568 165.973L84.661 174.584L89.6736 177.423L109.889 188.872C110.465 189.205 111.157 189.75 111.541 190.204C112.237 191.026 112.657 191.967 112.688 192.989C112.747 194.835 111.603 196.592 109.529 197.79L106.52 199.46C106.083 199.712 95.684 205.267 95.3069 205.049L92.708 206.168C91.304 206.978 88.9365 207.071 87.1536 207.071C85.6021 207.071 83.6941 206.442 82.5815 205.801L67.3773 197.19L62.3664 194.351L42.1512 182.902C41.5752 182.569 40.8826 182.023 40.4986 181.57C39.8026 180.748 39.3826 179.807 39.3517 178.785C39.2934 176.939 40.4369 175.182 42.5112 173.986L42.5078 173.984Z" fill="black"/>
<path opacity="0.27" d="M43.0433 174.41L45.9456 172.818C46.6005 172.44 56.2469 167.487 56.8144 167.814L59.3138 166.93C60.5619 166.21 63.0408 166.344 64.6265 166.344C66.0048 166.344 68.0088 167.079 68.9963 167.649L83.6245 175.947L88.4469 178.683L107.897 189.715C108.41 190.011 109.154 190.578 109.502 190.976C110.189 191.764 110.621 192.646 110.668 193.619C110.755 195.377 109.665 197.075 107.649 198.24L104.747 199.832C104.092 200.21 94.4435 205.163 93.8778 204.836L91.3783 205.72C90.1303 206.44 87.6514 206.306 86.0657 206.306C84.6874 206.306 82.6833 205.571 81.6959 205.001L67.0677 196.703L62.2453 193.967L42.7947 182.935C42.2822 182.639 41.5381 182.072 41.1901 181.674C40.5027 180.886 40.0707 180.004 40.0244 179.031C39.937 177.273 41.0273 175.573 43.045 174.41H43.0433Z" fill="black"/>
<path opacity="0.36" d="M43.5784 174.836L46.3761 173.323C47.2504 172.819 56.1443 168.466 56.902 168.901L59.3038 168.25C60.3958 167.619 62.9861 167.979 64.373 167.979C65.5799 167.979 67.6782 168.822 68.5422 169.321L82.5961 177.303L87.2299 179.934L105.918 190.548C106.365 190.807 107.166 191.396 107.474 191.741C108.151 192.495 108.599 193.32 108.661 194.24C108.777 195.913 107.742 197.55 105.78 198.681L102.983 200.194C102.108 200.698 93.2146 205.051 92.4568 204.616L90.0551 205.267C88.9631 205.898 86.3727 205.538 84.9859 205.538C83.779 205.538 81.6807 204.695 80.8167 204.196L66.7627 196.214L62.1289 193.582L43.4412 182.969C42.9938 182.71 42.1932 182.121 41.8846 181.776C41.2075 181.021 40.76 180.197 40.6983 179.277C40.5818 177.604 41.6172 175.966 43.5784 174.836Z" fill="black"/>
<path opacity="0.45" d="M44.1128 175.26L46.806 173.824C47.898 173.194 56.041 169.442 56.9873 169.987L59.2896 169.57C60.2256 169.031 62.9274 169.616 64.1171 169.616C65.1508 169.616 67.3434 170.566 68.0857 170.994L81.5654 178.663L86.0106 181.191L103.934 191.387C104.318 191.608 105.173 192.218 105.442 192.509C106.111 193.231 106.572 193.996 106.647 194.865C106.793 196.45 105.813 198.028 103.906 199.128L101.213 200.563C100.121 201.194 91.9781 204.946 91.0318 204.401L88.7295 204.818C87.7935 205.357 85.0917 204.771 83.902 204.771C82.8682 204.771 80.6756 203.822 79.9333 203.394L66.4537 195.725L62.0085 193.196L44.0854 183.001C43.7014 182.78 42.8459 182.168 42.5768 181.878C41.9082 181.157 41.447 180.391 41.3716 179.523C41.2259 177.938 42.2065 176.36 44.1128 175.26Z" fill="black"/>
<path opacity="0.55" d="M44.6477 175.686L47.2346 174.329C48.5443 173.573 55.9365 170.421 57.0713 171.075L59.2759 170.892C60.0559 170.441 62.8691 171.254 63.86 171.254C64.7223 171.254 67.0092 172.309 67.6263 172.667L80.53 180.02L84.7866 182.446L101.945 192.224C102.266 192.409 103.178 193.038 103.406 193.276C104.066 193.966 104.537 194.671 104.631 195.49C104.803 196.989 103.881 198.505 102.029 199.572L99.4423 200.929C98.1325 201.685 90.7404 204.837 89.6055 204.183L87.4009 204.366C86.6209 204.817 83.8077 204.005 82.8169 204.005C81.9546 204.005 79.6677 202.949 79.0505 202.591L66.1452 195.238L61.8885 192.812L44.73 183.034C44.4094 182.849 43.4974 182.22 43.2694 181.982C42.6094 181.292 42.138 180.587 42.0437 179.769C41.8722 178.269 42.7945 176.753 44.646 175.686H44.6477Z" fill="black"/>
<path opacity="0.64" d="M45.1849 176.111L47.6672 174.833C49.1964 173.951 55.8359 171.398 57.1594 172.162L59.2663 172.214C59.8903 171.854 62.8149 172.892 63.6069 172.892C64.2961 172.892 66.679 174.056 67.1727 174.34L79.502 181.38L83.5701 183.701L99.9657 193.061C100.221 193.208 101.193 193.856 101.378 194.044C102.031 194.702 102.515 195.348 102.625 196.114C102.825 197.526 101.956 198.982 100.161 200.019L97.6789 201.297C96.1497 202.179 89.5102 204.732 88.1867 203.968L86.0798 203.916C85.4558 204.276 82.5312 203.238 81.7392 203.238C81.05 203.238 78.6671 202.075 78.1734 201.79L65.8441 194.75L61.776 192.429L45.3803 183.069C45.1249 182.922 44.1529 182.274 43.966 182.086C43.3129 181.428 42.8294 180.782 42.7197 180.016C42.5192 178.603 43.3883 177.148 45.1832 176.111H45.1849Z" fill="black"/>
<path opacity="0.73" d="M45.7201 176.536L48.0978 175.335C49.8447 174.328 55.7334 172.375 57.2454 173.249L59.2529 173.535C59.7209 173.264 62.7569 174.528 63.3518 174.528C63.8695 174.528 66.345 175.798 66.7153 176.012L78.4703 182.737L82.3498 184.955L97.9809 193.899C98.1729 194.01 99.2049 194.675 99.3472 194.812C99.9935 195.439 100.489 196.023 100.612 196.738C100.842 198.064 100.028 199.458 98.2878 200.462L95.91 201.663C94.1631 202.671 88.2745 204.624 86.7607 203.75L84.7533 203.464C84.2853 203.735 81.2492 202.47 80.6543 202.47C80.1366 202.47 77.6612 201.201 77.2909 200.987L65.5358 194.262L61.6581 192.043L46.027 183.1C45.835 182.989 44.8029 182.324 44.6607 182.187C44.0144 181.56 43.5189 180.975 43.3955 180.261C43.1658 178.935 43.9801 177.54 45.7201 176.536Z" fill="black"/>
<path opacity="0.82" d="M46.2541 176.961L48.5273 175.839C50.4919 174.704 55.6297 173.353 57.332 174.336L59.2417 174.855C59.5537 174.675 62.7012 176.166 63.0972 176.166C63.4418 176.166 66.0133 177.543 66.2601 177.685L77.4409 184.097L81.1301 186.212L95.9983 194.738C96.1269 194.811 97.2189 195.492 97.3166 195.581C97.9561 196.177 98.4635 196.699 98.6023 197.362C98.8646 198.601 98.1018 199.936 96.4166 200.907L94.1434 202.029C92.1788 203.164 87.041 204.515 85.3387 203.532L83.429 203.013C83.117 203.193 79.9695 201.702 79.5735 201.702C79.2289 201.702 76.6574 200.325 76.4106 200.183L65.2298 193.771L61.5406 191.656L46.6741 183.13C46.5455 183.057 45.4518 182.376 45.3558 182.286C44.7164 181.689 44.2089 181.167 44.0701 180.504C43.8078 179.265 44.5707 177.93 46.2558 176.959L46.2541 176.961Z" fill="black"/>
<path opacity="0.91" d="M46.7907 177.386L48.9576 176.343C51.1416 175.084 55.5268 174.332 57.4177 175.423L59.2297 176.177C59.3857 176.086 62.6447 177.803 62.8435 177.803C63.0167 177.803 65.6824 179.286 65.8058 179.358L76.4106 185.454L79.9112 187.467L94.0148 195.575C94.0783 195.612 95.2354 196.304 95.2852 196.349C95.9194 196.916 96.4372 197.375 96.5897 197.989C96.8812 199.142 96.1714 200.415 94.5429 201.355L92.376 202.399C90.1919 203.658 85.8067 204.41 83.9158 203.319L82.1038 202.565C81.9478 202.656 78.6889 200.939 78.4918 200.939C78.3186 200.939 75.6529 199.455 75.5294 199.383L64.9247 193.287L61.4241 191.274L47.3204 183.167C47.257 183.129 46.0998 182.437 46.0501 182.393C45.4158 181.825 44.8981 181.366 44.7455 180.753C44.4541 179.6 45.1638 178.327 46.7924 177.386H46.7907Z" fill="black"/>
<path d="M82.4906 203.098L64.6171 192.796L46.7437 182.495C44.6643 181.294 44.9248 179.198 47.3266 177.812L49.3889 176.846C51.7907 175.46 55.425 175.309 57.5045 176.51L75.3779 186.812L93.2513 197.114C95.3308 198.315 95.0702 200.41 92.6684 201.796L90.6061 202.763C88.2044 204.149 84.57 204.299 82.4906 203.098Z" fill="black"/>
</g>
<path d="M95.4603 160.769L44.2093 141.668V179.655C44.0413 180.888 44.6961 182.091 46.2099 182.963L80.8664 203.022C83.8682 204.754 89.1123 204.537 92.5786 202.537C94.4129 201.479 95.3815 200.134 95.4432 198.845L95.4603 198.852V160.769Z" fill="url(#paint25_linear_1000_3852)"/>
<path style="mix-blend-mode:color-dodge" d="M84.2751 202.236C86.8779 202.236 88.9878 193.925 88.9878 183.673C88.9878 173.42 86.8779 165.109 84.2751 165.109C81.6724 165.109 79.5625 173.42 79.5625 183.673C79.5625 193.925 81.6724 202.236 84.2751 202.236Z" fill="url(#paint26_radial_1000_3852)"/>
<path d="M80.8669 164.859L46.2103 144.8C43.2086 143.068 43.584 140.042 47.0521 138.041C50.5184 136.041 55.7625 135.824 58.7643 137.556L93.4208 157.615C96.4225 159.347 96.0471 162.373 92.5791 164.374C89.1127 166.373 83.8686 166.591 80.8669 164.859Z" fill="url(#paint27_linear_1000_3852)"/>
<path style="mix-blend-mode:color-dodge" d="M92.7431 164.045C89.2767 166.044 84.0326 166.262 81.0309 164.53L46.3744 144.471C44.8452 143.588 44.1938 142.37 44.3806 141.123C43.7463 142.624 44.3138 144.173 46.1566 145.235L80.8132 165.294C83.8149 167.026 89.059 166.809 92.5253 164.809C94.2259 163.827 95.1808 162.599 95.3608 161.398C94.9614 162.344 94.0854 163.271 92.7448 164.043L92.7431 164.045Z" fill="url(#paint28_radial_1000_3852)"/>
<g opacity="0.3">
<path d="M73.2473 114.299C63.5683 108.725 51.4824 115.709 51.4824 126.871V146.048H51.4858C51.4858 146.06 51.4824 146.07 51.4824 146.082C51.4824 147.613 53.6167 148.856 56.2482 148.856C58.8797 148.856 61.014 147.613 61.014 146.082C61.014 146.063 61.0106 146.046 61.0089 146.027H61.0603V128.903C61.0603 124.176 66.1758 121.217 70.2781 123.571C75.0405 126.305 77.9771 131.377 77.9771 136.866V161.289H78.0285C78.08 162.795 80.1903 164.006 82.7892 164.006C85.3881 164.006 87.5275 162.779 87.5533 161.26H87.555V139.035C87.555 128.827 82.1 119.396 73.249 114.299H73.2473Z" fill="url(#paint29_linear_1000_3852)"/>
<path style="mix-blend-mode:color-dodge" d="M54.4343 147.359H54.4309V129.165C54.4309 121.696 60.5133 115.617 67.9877 115.617C70.35 115.617 72.6163 116.232 74.7232 117.445C76.0895 118.231 77.3718 119.129 78.5633 120.119C76.8558 118.394 74.9084 116.883 72.7552 115.643C70.6483 114.43 68.382 113.814 66.0197 113.814C58.5453 113.814 52.4629 119.891 52.4629 127.363V145.556H52.4663V146.54C52.4663 146.562 52.4663 146.584 52.4646 146.605C52.492 147.181 53.26 147.797 54.4343 148.125V147.357V147.359Z" fill="url(#paint30_radial_1000_3852)"/>
<path style="mix-blend-mode:color-dodge" d="M80.9446 162.922H80.9275V139.487C80.9275 134.401 78.5326 129.622 74.5605 126.561C77.3394 129.542 78.9612 133.508 78.9612 137.687V161.121H78.9783L79.0109 162.075C79.0315 162.647 79.7995 163.268 80.9686 163.6L80.9446 162.923V162.922Z" fill="url(#paint31_radial_1000_3852)"/>
<path d="M63.2877 119.041C58.9865 119.041 55.4876 122.538 55.4876 126.836V146.712L55.4379 148.417C55.4019 148.559 58.1053 148.34 58.1688 148.09L58.2185 146.385V126.509C58.2185 123.006 60.5431 120.035 63.7317 119.056C63.5843 119.048 63.4351 119.041 63.2877 119.041Z" fill="url(#paint32_linear_1000_3852)"/>
<path d="M71.6111 116.62C69.6054 115.465 67.4505 114.881 65.203 114.881C64.2705 114.881 63.3276 114.994 62.3984 115.21C62.4224 115.21 62.4482 115.208 62.4722 115.208C64.7179 115.208 66.8745 115.792 68.8803 116.947C77.1981 121.736 82.365 130.67 82.365 140.263V163.771C82.3599 163.901 85.0908 163.668 85.0942 163.444V139.936C85.0959 130.342 79.929 121.408 71.6111 116.62Z" fill="url(#paint33_linear_1000_3852)"/>
<path style="mix-blend-mode:screen" opacity="0.5" d="M58.6016 129.668V148.022C59.6799 147.684 60.381 147.104 60.4119 146.557V146.543L60.4582 145.488V129.34C60.4582 126.157 62.5548 123.453 65.44 122.535C61.641 122.696 58.6016 125.833 58.6016 129.668Z" fill="url(#paint34_linear_1000_3852)"/>
<g style="mix-blend-mode:screen" opacity="0.5">
<path d="M73.3704 115.693C72.3744 115.12 71.3424 114.686 70.2812 114.383C79.3534 119.807 84.9695 129.676 84.9695 140.264V163.276C86.2706 162.963 87.1364 162.3 87.1467 161.687V139.522C87.1484 129.718 81.8683 120.588 73.3687 115.695L73.3704 115.693Z" fill="url(#paint35_linear_1000_3852)"/>
</g>
</g>
<path style="mix-blend-mode:multiply" d="M57.0265 145.816C60.0884 145.816 62.5706 144.371 62.5706 142.589C62.5706 140.808 60.0884 139.363 57.0265 139.363C53.9646 139.363 51.4824 140.808 51.4824 142.589C51.4824 144.371 53.9646 145.816 57.0265 145.816Z" fill="url(#paint36_linear_1000_3852)"/>
<path style="mix-blend-mode:multiply" d="M83.4079 160.874C86.3827 160.874 88.7942 159.47 88.7942 157.739C88.7942 156.007 86.3827 154.604 83.4079 154.604C80.433 154.604 78.0215 156.007 78.0215 157.739C78.0215 159.47 80.433 160.874 83.4079 160.874Z" fill="url(#paint37_linear_1000_3852)"/>
<path d="M73.2473 114.246C63.5683 108.673 51.4824 115.656 51.4824 126.818V142.555H51.4858C51.4858 142.567 51.4824 142.577 51.4824 142.589C51.4824 144.12 53.6167 145.363 56.2482 145.363C58.8797 145.363 61.014 144.12 61.014 142.589C61.014 142.57 61.0106 142.553 61.0089 142.534H61.0603V128.848C61.0603 124.121 66.1758 121.161 70.2781 123.517C75.0405 126.251 77.9771 131.322 77.9771 136.812V157.794H78.0285C78.08 159.3 80.1903 160.511 82.7892 160.511C85.3881 160.511 87.5275 159.285 87.5533 157.765H87.555V138.979C87.555 128.771 82.1 119.34 73.249 114.243L73.2473 114.246Z" fill="url(#paint38_linear_1000_3852)"/>
<path style="mix-blend-mode:color-dodge" d="M54.4343 143.864H54.4309V129.111C54.4309 121.641 60.5133 115.562 67.9877 115.562C70.35 115.562 72.6163 116.177 74.7232 117.39C76.0895 118.177 77.3718 119.074 78.5633 120.065C76.8558 118.339 74.9084 116.828 72.7552 115.588C70.6483 114.375 68.382 113.76 66.0197 113.76C58.5453 113.76 52.4629 119.837 52.4629 127.308V142.061H52.4663V143.045C52.4663 143.067 52.4663 143.089 52.4646 143.11C52.492 143.686 53.26 144.302 54.4343 144.63V143.862V143.864Z" fill="url(#paint39_radial_1000_3852)"/>
<path style="mix-blend-mode:color-dodge" d="M80.9446 159.427H80.9275V139.433C80.9275 134.346 78.5326 129.567 74.5605 126.506C77.3394 129.487 78.9612 133.453 78.9612 137.632V157.626H78.9783L79.0109 158.58C79.0315 159.152 79.7995 159.773 80.9686 160.105L80.9446 159.428V159.427Z" fill="url(#paint40_radial_1000_3852)"/>
<path d="M63.2877 118.986C58.9865 118.986 55.4876 122.483 55.4876 126.782V143.217L55.4379 144.922C55.4019 145.066 58.1053 144.845 58.1688 144.595L58.2185 142.89V126.455C58.2185 122.951 60.5431 119.98 63.7317 119.002C63.5843 118.993 63.4351 118.986 63.2877 118.986Z" fill="url(#paint41_linear_1000_3852)"/>
<path d="M71.6111 116.565C69.6054 115.41 67.4505 114.826 65.203 114.826C64.2705 114.826 63.3276 114.939 62.3984 115.155C62.4224 115.155 62.4482 115.153 62.4722 115.153C64.7179 115.153 66.8745 115.738 68.8803 116.892C77.1981 121.681 82.365 130.616 82.365 140.208V160.278C82.3599 160.408 85.0908 160.175 85.0942 159.951V139.881C85.0959 130.287 79.929 121.354 71.6111 116.565Z" fill="url(#paint42_linear_1000_3852)"/>
<path style="mix-blend-mode:screen" opacity="0.5" d="M58.6016 129.613V144.529C59.6799 144.193 60.381 143.611 60.4119 143.064V143.05L60.4582 141.995V129.288C60.4582 126.104 62.5548 123.401 65.44 122.482C61.641 122.643 58.6016 125.78 58.6016 129.615V129.613Z" fill="url(#paint43_linear_1000_3852)"/>
<g style="mix-blend-mode:screen" opacity="0.5">
<path d="M73.3704 115.641C72.3744 115.067 71.3424 114.633 70.2812 114.33C79.3534 119.754 84.9695 129.623 84.9695 140.211V159.783C86.2706 159.47 87.1364 158.807 87.1467 158.194V139.469C87.1484 129.666 81.8683 120.536 73.3687 115.642L73.3704 115.641Z" fill="url(#paint44_linear_1000_3852)"/>
</g>
<path style="mix-blend-mode:screen" d="M67.9685 115.617C70.4423 115.617 72.8217 116.22 75.0555 117.393C74.2189 116.77 73.3446 116.19 72.4291 115.663C70.4234 114.508 68.2685 113.924 66.0211 113.924C59.817 113.924 53.1191 118.853 53.1191 126.816V126.852C55.0375 119.816 61.7113 115.617 67.9685 115.617Z" fill="url(#paint45_linear_1000_3852)"/>
<path style="mix-blend-mode:screen" d="M79.6135 137.208C80.0472 133.439 79.581 128.088 75.134 123.397C70.9837 119.02 65.9813 117.884 63.3516 122.083C64.4916 121.429 65.8116 121.053 67.219 121.053C68.6265 121.053 69.9019 121.415 71.0917 122.098C76.3478 125.117 79.6135 130.756 79.6135 136.814V137.21V137.208Z" fill="url(#paint46_linear_1000_3852)"/>
<path d="M69.207 174.201C69.207 171.87 67.5595 169.029 65.5263 167.857C63.4932 166.684 61.8457 167.622 61.8457 169.954C61.8457 171.525 62.5966 173.326 63.7074 174.695V182.079L67.3469 184.18V176.795C68.4578 176.71 69.2087 175.774 69.2087 174.203L69.207 174.201Z" fill="url(#paint47_linear_1000_3852)"/>
<path d="M65.4323 181.304V173.919C64.3214 172.552 63.5705 170.752 63.5705 169.179C63.5705 168.413 63.7505 167.801 64.0625 167.361C62.7597 167.258 61.8477 168.219 61.8477 169.953C61.8477 171.524 62.5985 173.325 63.7077 174.692V182.076L67.3472 184.177V182.407L65.4323 181.302V181.304Z" fill="url(#paint48_linear_1000_3852)"/>
<g style="mix-blend-mode:multiply" opacity="0.7">
<path d="M65.4323 181.304V173.919C64.3214 172.552 63.5705 170.752 63.5705 169.179C63.5705 168.413 63.7505 167.801 64.0625 167.361C62.7597 167.258 61.8477 168.219 61.8477 169.953C61.8477 171.524 62.5985 173.325 63.7077 174.692V182.076L67.3472 184.177V182.407L65.4323 181.302V181.304Z" fill="#715719"/>
</g>
<defs>
<linearGradient id="paint0_linear_1000_3852" x1="73.6097" y1="142.173" x2="246.31" y2="48.585" gradientUnits="userSpaceOnUse">
<stop stop-color="#6F4DDC"/>
<stop offset="0.09" stop-color="#7150DC"/>
<stop offset="0.18" stop-color="#785CDF"/>
<stop offset="0.27" stop-color="#846EE4"/>
<stop offset="0.35" stop-color="#9489EB"/>
<stop offset="0.44" stop-color="#A9ABF4"/>
<stop offset="0.52" stop-color="#C4D6FF"/>
<stop offset="0.71" stop-color="#D3DFFD"/>
<stop offset="1" stop-color="#F4F4FB"/>
</linearGradient>
<linearGradient id="paint1_linear_1000_3852" x1="40.8055" y1="101.866" x2="140.026" y2="119.28" gradientUnits="userSpaceOnUse">
<stop stop-color="#D8DFEA"/>
<stop offset="0.19" stop-color="#E0E3EA"/>
<stop offset="0.52" stop-color="#EAEAEB"/>
<stop offset="0.99" stop-color="#F3F3FA"/>
<stop offset="1" stop-color="#F4F4FB"/>
</linearGradient>
<linearGradient id="paint2_linear_1000_3852" x1="110.493" y1="37.4161" x2="204.58" y2="133.024" gradientUnits="userSpaceOnUse">
<stop stop-color="#D8DFEA"/>
<stop offset="0.25" stop-color="#DBE1EA"/>
<stop offset="0.48" stop-color="#E6E8EA"/>
<stop offset="0.52" stop-color="#EAEAEB"/>
<stop offset="0.9" stop-color="#F9F9F9"/>
<stop offset="1" stop-color="white"/>
</linearGradient>
<linearGradient id="paint3_linear_1000_3852" x1="162.025" y1="139.969" x2="244.368" y2="186.773" gradientUnits="userSpaceOnUse">
<stop stop-color="#909090"/>
<stop offset="0.12" stop-color="#929393"/>
<stop offset="0.22" stop-color="#9B9D9E"/>
<stop offset="0.33" stop-color="#ABADB1"/>
<stop offset="0.43" stop-color="#C0C4CC"/>
<stop offset="0.52" stop-color="#D8DFEA"/>
<stop offset="0.74" stop-color="#E7EBF2"/>
<stop offset="1" stop-color="white"/>
</linearGradient>
<radialGradient id="paint4_radial_1000_3852" cx="0" cy="0" r="1" gradientUnits="userSpaceOnUse" gradientTransform="translate(129.752 115.573) scale(56.418 56.3841)">
<stop stop-color="white"/>
<stop offset="1"/>
</radialGradient>
<linearGradient id="paint5_linear_1000_3852" x1="74.8198" y1="143.048" x2="241.81" y2="52.5545" gradientUnits="userSpaceOnUse">
<stop offset="0.4" stop-color="#C4D6FF"/>
<stop offset="0.6" stop-color="#D3E0FF"/>
<stop offset="0.98" stop-color="#FCFDFF"/>
<stop offset="1" stop-color="white"/>
</linearGradient>
<linearGradient id="paint6_linear_1000_3852" x1="75.7361" y1="142.868" x2="240.131" y2="53.78" gradientUnits="userSpaceOnUse">
<stop offset="0.4" stop-color="#C4D6FF"/>
<stop offset="0.6" stop-color="#D3E0FF"/>
<stop offset="0.98" stop-color="#FCFDFF"/>
<stop offset="1" stop-color="white"/>
</linearGradient>
<linearGradient id="paint7_linear_1000_3852" x1="76.6526" y1="142.688" x2="238.453" y2="55.0063" gradientUnits="userSpaceOnUse">
<stop offset="0.4" stop-color="#C4D6FF"/>
<stop offset="0.6" stop-color="#D3E0FF"/>
<stop offset="0.98" stop-color="#FCFDFF"/>
<stop offset="1" stop-color="white"/>
</linearGradient>
<linearGradient id="paint8_linear_1000_3852" x1="77.571" y1="142.507" x2="236.782" y2="56.2304" gradientUnits="userSpaceOnUse">
<stop offset="0.4" stop-color="#C4D6FF"/>
<stop offset="0.6" stop-color="#D3E0FF"/>
<stop offset="0.98" stop-color="#FCFDFF"/>
<stop offset="1" stop-color="white"/>
</linearGradient>
<linearGradient id="paint9_linear_1000_3852" x1="78.4872" y1="142.331" x2="235.114" y2="57.4528" gradientUnits="userSpaceOnUse">
<stop offset="0.4" stop-color="#C4D6FF"/>
<stop offset="0.6" stop-color="#D3E0FF"/>
<stop offset="0.98" stop-color="#FCFDFF"/>
<stop offset="1" stop-color="white"/>
</linearGradient>
<linearGradient id="paint10_linear_1000_3852" x1="79.4037" y1="142.159" x2="233.461" y2="58.6735" gradientUnits="userSpaceOnUse">
<stop offset="0.4" stop-color="#C4D6FF"/>
<stop offset="0.6" stop-color="#D3E0FF"/>
<stop offset="0.98" stop-color="#FCFDFF"/>
<stop offset="1" stop-color="white"/>
</linearGradient>
<linearGradient id="paint11_linear_1000_3852" x1="80.3028" y1="141.994" x2="231.944" y2="59.8191" gradientUnits="userSpaceOnUse">
<stop offset="0.4" stop-color="#C4D6FF"/>
<stop offset="0.6" stop-color="#D3E0FF"/>
<stop offset="0.98" stop-color="#FCFDFF"/>
<stop offset="1" stop-color="white"/>
</linearGradient>
<linearGradient id="paint12_linear_1000_3852" x1="81.2031" y1="141.831" x2="230.441" y2="60.9572" gradientUnits="userSpaceOnUse">
<stop offset="0.4" stop-color="#C4D6FF"/>
<stop offset="0.6" stop-color="#D3E0FF"/>
<stop offset="0.98" stop-color="#FCFDFF"/>
<stop offset="1" stop-color="white"/>
</linearGradient>
<linearGradient id="paint13_linear_1000_3852" x1="82.1029" y1="141.669" x2="228.94" y2="62.0971" gradientUnits="userSpaceOnUse">
<stop offset="0.4" stop-color="#C4D6FF"/>
<stop offset="0.6" stop-color="#D3E0FF"/>
<stop offset="0.98" stop-color="#FCFDFF"/>
<stop offset="1" stop-color="white"/>
</linearGradient>
<linearGradient id="paint14_linear_1000_3852" x1="83.0005" y1="141.509" x2="227.44" y2="63.2374" gradientUnits="userSpaceOnUse">
<stop offset="0.4" stop-color="#C4D6FF"/>
<stop offset="0.6" stop-color="#D3E0FF"/>
<stop offset="0.98" stop-color="#FCFDFF"/>
<stop offset="1" stop-color="white"/>
</linearGradient>
<linearGradient id="paint15_linear_1000_3852" x1="83.9016" y1="141.352" x2="225.942" y2="64.3796" gradientUnits="userSpaceOnUse">
<stop offset="0.4" stop-color="#C4D6FF"/>
<stop offset="0.6" stop-color="#D3E0FF"/>
<stop offset="0.98" stop-color="#FCFDFF"/>
<stop offset="1" stop-color="white"/>
</linearGradient>
<linearGradient id="paint16_linear_1000_3852" x1="30.1591" y1="111.526" x2="129.38" y2="128.94" gradientUnits="userSpaceOnUse">
<stop stop-color="#D8DFEA"/>
<stop offset="0.52" stop-color="#EAEAEB"/>
<stop offset="0.99" stop-color="#F3F3FA"/>
<stop offset="1" stop-color="#F4F4FB"/>
</linearGradient>
<linearGradient id="paint17_linear_1000_3852" x1="99.8446" y1="47.0746" x2="193.934" y2="142.684" gradientUnits="userSpaceOnUse">
<stop stop-color="#D8DFEA"/>
<stop offset="0.25" stop-color="#DBE1EA"/>
<stop offset="0.48" stop-color="#E6E8EA"/>
<stop offset="0.52" stop-color="#EAEAEB"/>
<stop offset="0.9" stop-color="#F9F9F9"/>
<stop offset="1" stop-color="white"/>
</linearGradient>
<linearGradient id="paint18_linear_1000_3852" x1="151.376" y1="149.63" x2="233.721" y2="196.433" gradientUnits="userSpaceOnUse">
<stop stop-color="#909090"/>
<stop offset="0.12" stop-color="#929393"/>
<stop offset="0.22" stop-color="#9B9D9E"/>
<stop offset="0.33" stop-color="#ABADB1"/>
<stop offset="0.43" stop-color="#C0C4CC"/>
<stop offset="0.52" stop-color="#D8DFEA"/>
<stop offset="0.74" stop-color="#E7EBF2"/>
<stop offset="1" stop-color="white"/>
</linearGradient>
<linearGradient id="paint19_linear_1000_3852" x1="140.29" y1="84.9738" x2="80.6748" y2="175.72" gradientUnits="userSpaceOnUse">
<stop stop-color="#C4D6FF"/>
<stop offset="0.5" stop-color="#7252DE"/>
<stop offset="0.9" stop-color="#6F4DDD"/>
<stop offset="1" stop-color="#542BB7"/>
</linearGradient>
<linearGradient id="paint20_linear_1000_3852" x1="182.094" y1="137.427" x2="104.092" y2="137.727" gradientUnits="userSpaceOnUse">
<stop offset="0.03" stop-color="#6B22C3"/>
<stop offset="0.22" stop-color="#7046CD"/>
<stop offset="0.63" stop-color="#7FA0E6"/>
<stop offset="1" stop-color="#8EF5FF"/>
</linearGradient>
<radialGradient id="paint21_radial_1000_3852" cx="0" cy="0" r="1" gradientUnits="userSpaceOnUse" gradientTransform="translate(119.106 125.233) scale(56.418 56.3841)">
<stop stop-color="white"/>
<stop offset="1"/>
</radialGradient>
<linearGradient id="paint22_linear_1000_3852" x1="155.725" y1="55.221" x2="155.725" y2="228.178" gradientUnits="userSpaceOnUse">
<stop stop-color="#704DDD"/>
<stop offset="1" stop-color="#C4D5FF"/>
</linearGradient>
<linearGradient id="paint23_linear_1000_3852" x1="62.963" y1="151.833" x2="235.664" y2="58.2451" gradientUnits="userSpaceOnUse">
<stop stop-color="#D8DFEA"/>
<stop offset="0.25" stop-color="#DBE1EA"/>
<stop offset="0.48" stop-color="#E6E8EA"/>
<stop offset="0.52" stop-color="#EAEAEB"/>
<stop offset="0.99" stop-color="#F3F3FA"/>
<stop offset="1" stop-color="#F4F4FB"/>
</linearGradient>
<radialGradient id="paint24_radial_1000_3852" cx="0" cy="0" r="1" gradientUnits="userSpaceOnUse" gradientTransform="translate(118.452 127.621) scale(43.9121 43.8857)">
<stop stop-color="white"/>
<stop offset="1"/>
</radialGradient>
<linearGradient id="paint25_linear_1000_3852" x1="95.9506" y1="172.93" x2="43.8647" y2="172.93" gradientUnits="userSpaceOnUse">
<stop stop-color="#EDB995"/>
<stop offset="0.23" stop-color="#FDFAC9"/>
<stop offset="0.54" stop-color="#E7B476"/>
<stop offset="0.65" stop-color="#E8B77B"/>
<stop offset="0.8" stop-color="#EBC08A"/>
<stop offset="0.95" stop-color="#F1D0A3"/>
</linearGradient>
<radialGradient id="paint26_radial_1000_3852" cx="0" cy="0" r="1" gradientUnits="userSpaceOnUse" gradientTransform="translate(83.2998 183.291) scale(4.63394 18.5246)">
<stop stop-color="#DC9385"/>
<stop offset="0.07" stop-color="#BC7E72"/>
<stop offset="0.2" stop-color="#8B5C54"/>
<stop offset="0.33" stop-color="#60403A"/>
<stop offset="0.46" stop-color="#3D2925"/>
<stop offset="0.59" stop-color="#221714"/>
<stop offset="0.72" stop-color="#0F0A09"/>
<stop offset="0.86" stop-color="#030202"/>
<stop offset="1"/>
</radialGradient>
<linearGradient id="paint27_linear_1000_3852" x1="44.1823" y1="151.207" x2="95.4471" y2="151.207" gradientUnits="userSpaceOnUse">
<stop offset="0.04" stop-color="#ECB87B"/>
<stop offset="0.4" stop-color="#EFC789"/>
<stop offset="1" stop-color="#F8EAA9"/>
</linearGradient>
<radialGradient id="paint28_radial_1000_3852" cx="0" cy="0" r="1" gradientUnits="userSpaceOnUse" gradientTransform="translate(69.7439 153.793) scale(20.21 20.1979)">
<stop stop-color="#DC9385"/>
<stop offset="0.07" stop-color="#BC7E72"/>
<stop offset="0.2" stop-color="#8B5C54"/>
<stop offset="0.33" stop-color="#60403A"/>
<stop offset="0.46" stop-color="#3D2925"/>
<stop offset="0.59" stop-color="#221714"/>
<stop offset="0.72" stop-color="#0F0A09"/>
<stop offset="0.86" stop-color="#030202"/>
<stop offset="1"/>
</radialGradient>
<linearGradient id="paint29_linear_1000_3852" x1="100.945" y1="154.234" x2="32.5753" y2="112.552" gradientUnits="userSpaceOnUse">
<stop offset="0.04" stop-color="#9B9CB0"/>
<stop offset="0.58" stop-color="#D1CFD6"/>
<stop offset="1" stop-color="#ECE9F0"/>
</linearGradient>
<radialGradient id="paint30_radial_1000_3852" cx="0" cy="0" r="1" gradientUnits="userSpaceOnUse" gradientTransform="translate(47.7657 150.133) scale(29.4176 29.3999)">
<stop stop-color="#DC9385"/>
<stop offset="0.07" stop-color="#BC7E72"/>
<stop offset="0.2" stop-color="#8B5C54"/>
<stop offset="0.33" stop-color="#60403A"/>
<stop offset="0.46" stop-color="#3D2925"/>
<stop offset="0.59" stop-color="#221714"/>
<stop offset="0.72" stop-color="#0F0A09"/>
<stop offset="0.86" stop-color="#030202"/>
<stop offset="1"/>
</radialGradient>
<radialGradient id="paint31_radial_1000_3852" cx="0" cy="0" r="1" gradientUnits="userSpaceOnUse" gradientTransform="translate(71.0394 167.311) scale(35.008 34.9869)">
<stop stop-color="#6F4EDD"/>
<stop offset="0.07" stop-color="#5E42BC"/>
<stop offset="0.2" stop-color="#45318B"/>
<stop offset="0.33" stop-color="#302260"/>
<stop offset="0.46" stop-color="#1E153D"/>
<stop offset="0.59" stop-color="#110C22"/>
<stop offset="0.72" stop-color="#07050F"/>
<stop offset="0.86" stop-color="#010103"/>
<stop offset="1"/>
</radialGradient>
<linearGradient id="paint32_linear_1000_3852" x1="60.5876" y1="134.351" x2="41.188" y2="122.524" gradientUnits="userSpaceOnUse">
<stop offset="0.04" stop-color="#9B9CB0"/>
<stop offset="0.58" stop-color="#D1CFD6"/>
<stop offset="1" stop-color="#ECE9F0"/>
</linearGradient>
<linearGradient id="paint33_linear_1000_3852" x1="84.4308" y1="142.424" x2="35.4087" y2="126.72" gradientUnits="userSpaceOnUse">
<stop offset="0.04" stop-color="#9B9CB0"/>
<stop offset="0.58" stop-color="#D1CFD6"/>
<stop offset="1" stop-color="#ECE9F0"/>
</linearGradient>
<linearGradient id="paint34_linear_1000_3852" x1="67.3874" y1="138.547" x2="52.0322" y2="129.186" gradientUnits="userSpaceOnUse">
<stop stop-color="#F6E2A8"/>
<stop offset="1"/>
</linearGradient>
<linearGradient id="paint35_linear_1000_3852" x1="99.8857" y1="152.094" x2="47.5065" y2="120.161" gradientUnits="userSpaceOnUse">
<stop stop-color="#F6E2A8"/>
<stop offset="1"/>
</linearGradient>
<linearGradient id="paint36_linear_1000_3852" x1="60.4294" y1="139.567" x2="52.5666" y2="146.56" gradientUnits="userSpaceOnUse">
<stop stop-color="white"/>
<stop offset="1"/>
</linearGradient>
<linearGradient id="paint37_linear_1000_3852" x1="87.2582" y1="153.867" x2="76.7301" y2="164.468" gradientUnits="userSpaceOnUse">
<stop stop-color="white"/>
<stop offset="1"/>
</linearGradient>
<linearGradient id="paint38_linear_1000_3852" x1="99.9546" y1="151.856" x2="33.9819" y2="111.636" gradientUnits="userSpaceOnUse">
<stop offset="0.04" stop-color="#978EAF"/>
<stop offset="0.58" stop-color="#D1CFD6"/>
<stop offset="1" stop-color="#ECE9F0"/>
</linearGradient>
<radialGradient id="paint39_radial_1000_3852" cx="0" cy="0" r="1" gradientUnits="userSpaceOnUse" gradientTransform="translate(47.7657 146.435) scale(29.4056 29.3879)">
<stop stop-color="#DC9385"/>
<stop offset="0.07" stop-color="#BC7E72"/>
<stop offset="0.2" stop-color="#8B5C54"/>
<stop offset="0.33" stop-color="#60403A"/>
<stop offset="0.46" stop-color="#3D2925"/>
<stop offset="0.59" stop-color="#221714"/>
<stop offset="0.72" stop-color="#0F0A09"/>
<stop offset="0.86" stop-color="#030202"/>
<stop offset="1"/>
</radialGradient>
<radialGradient id="paint40_radial_1000_3852" cx="0" cy="0" r="1" gradientUnits="userSpaceOnUse" gradientTransform="translate(71.0394 163.472) scale(34.6257 34.6049)">
<stop stop-color="#714DDC"/>
<stop offset="0.07" stop-color="#6042BC"/>
<stop offset="0.2" stop-color="#47308B"/>
<stop offset="0.33" stop-color="#312160"/>
<stop offset="0.46" stop-color="#1F153D"/>
<stop offset="0.59" stop-color="#110C22"/>
<stop offset="0.72" stop-color="#07050F"/>
<stop offset="0.86" stop-color="#010103"/>
<stop offset="1"/>
</radialGradient>
<linearGradient id="paint41_linear_1000_3852" x1="60.3596" y1="132.439" x2="43.3575" y2="122.073" gradientUnits="userSpaceOnUse">
<stop offset="0.04" stop-color="#9995AF"/>
<stop offset="0.72" stop-color="#ECE9F0"/>
</linearGradient>
<linearGradient id="paint42_linear_1000_3852" x1="84.1256" y1="140.551" x2="36.5194" y2="125.302" gradientUnits="userSpaceOnUse">
<stop offset="0.04" stop-color="#9995AF"/>
<stop offset="0.58" stop-color="#D1CFD6"/>
<stop offset="1" stop-color="#ECE9F0"/>
</linearGradient>
<linearGradient id="paint43_linear_1000_3852" x1="66.3965" y1="136.17" x2="53.4388" y2="128.27" gradientUnits="userSpaceOnUse">
<stop stop-color="#F6E2A8"/>
<stop offset="1"/>
</linearGradient>
<linearGradient id="paint44_linear_1000_3852" x1="98.8948" y1="149.716" x2="48.9132" y2="119.244" gradientUnits="userSpaceOnUse">
<stop stop-color="#F6E2A8"/>
<stop offset="1"/>
</linearGradient>
<linearGradient id="paint45_linear_1000_3852" x1="60.4633" y1="116.146" x2="63.7381" y2="121.553" gradientUnits="userSpaceOnUse">
<stop stop-color="#6F4EDD"/>
<stop offset="1"/>
</linearGradient>
<linearGradient id="paint46_linear_1000_3852" x1="80.4364" y1="125.849" x2="45.4775" y2="137.983" gradientUnits="userSpaceOnUse">
<stop stop-color="#F6E2A8"/>
<stop offset="1"/>
</linearGradient>
<linearGradient id="paint47_linear_1000_3852" x1="61.8457" y1="175.766" x2="69.207" y2="175.766" gradientUnits="userSpaceOnUse">
<stop stop-color="#6F4DDD"/>
<stop offset="0.35" stop-color="#704FDD"/>
<stop offset="0.51" stop-color="#7456DF"/>
<stop offset="0.64" stop-color="#7C63E2"/>
<stop offset="0.74" stop-color="#8775E6"/>
<stop offset="0.83" stop-color="#968CEC"/>
<stop offset="0.91" stop-color="#A8A9F4"/>
<stop offset="0.98" stop-color="#BDCBFC"/>
<stop offset="1" stop-color="#C4D6FF"/>
</linearGradient>
<linearGradient id="paint48_linear_1000_3852" x1="58.887" y1="166.254" x2="67.9322" y2="181.596" gradientUnits="userSpaceOnUse">
<stop offset="0.06" stop-color="#ECD391"/>
<stop offset="0.18" stop-color="#F4E79D"/>
<stop offset="0.3" stop-color="#FAF5A5"/>
<stop offset="0.41" stop-color="#FBF9A7"/>
<stop offset="0.56" stop-color="#F1E196"/>
<stop offset="0.69" stop-color="#EBD38C"/>
<stop offset="0.81" stop-color="#E9CE89"/>
</linearGradient>
</defs>
</svg>
